<?xml version="1.0" encoding="UTF-8"?>
<svg width="80px" height="80px" viewBox="0 0 80 80" version="1.1" xmlns="http://www.w3.org/2000/svg" xmlns:xlink="http://www.w3.org/1999/xlink">
    <!-- Generator: Sketch 46.2 (44496) - http://www.bohemiancoding.com/sketch -->
    <title>failure_icon</title>
    <desc>Created with Sketch.</desc>
    <defs></defs>
    <g id="Page-1" stroke="none" stroke-width="1" fill="none" fill-rule="evenodd">
        <g id="08_Payment-Unsuccessful" transform="translate(-140.000000, -182.000000)">
            <g id="Group" transform="translate(0.000000, 48.000000)">
                <g id="failure_icon" transform="translate(140.000000, 134.000000)">
                    <path d="M40,0 C17.9076044,0 0,17.9076044 0,40 C0,62.0923956 17.9091919,80 40,80 C62.0923956,80 80,62.0908081 80,40 C80,17.9076044 62.0923956,0 40,0 Z" id="Path" fill="#F64658"></path>
                    <path d="M42.9205786,17.2697286 L60.4943452,52.4172617 L60.4943452,52.4172617 C61.3008407,54.0302527 60.6470469,55.9916341 59.0340559,56.7981296 C58.5806504,57.0248324 58.0806893,57.1428571 57.5737666,57.1428571 L22.4262334,57.1428571 L22.4262334,57.1428571 C20.6228547,57.1428571 19.1609273,55.6809298 19.1609273,53.877551 C19.1609273,53.3706283 19.2789521,52.8706672 19.5056548,52.4172617 L37.0794214,17.2697286 L37.0794214,17.2697286 C37.8859169,15.6567376 39.8472983,15.0029438 41.4602893,15.8094393 C42.0922155,16.1254024 42.6046155,16.6378024 42.9205786,17.2697286 Z" id="Triangle" fill="#FFFFFF"></path>
                    <path d="M41.4285714,48.5714286 L38.5714286,48.5714286 L38.5714286,45.4285714 L41.4285714,45.4285714 L41.4285714,48.5714286 Z M41.4285714,42.2857143 L38.5714286,42.2857143 L38.5714286,32.8571429 L41.4285714,32.8571429 L41.4285714,42.2857143 Z" id="Combined-Shape" fill="#F64658"></path>
                </g>
            </g>
        </g>
    </g>
</svg>