<?xml version="1.0" encoding="UTF-8"?>
<svg width="320px" height="254px" viewBox="0 0 320 254" version="1.1" xmlns="http://www.w3.org/2000/svg" xmlns:xlink="http://www.w3.org/1999/xlink">
    <!-- Generator: Sketch 46.2 (44496) - http://www.bohemiancoding.com/sketch -->
    <title>Main Graphic</title>
    <desc>Created with Sketch.</desc>
    <defs>
        <linearGradient x1="0%" y1="100%" x2="140.656101%" y2="0%" id="linearGradient-1">
            <stop stop-color="#00ADB7" offset="0%"></stop>
            <stop stop-color="#19DCCC" offset="100%"></stop>
        </linearGradient>
        <linearGradient x1="0%" y1="100%" x2="160.383576%" y2="-14.6208437%" id="linearGradient-2">
            <stop stop-color="#00ADB7" offset="0%"></stop>
            <stop stop-color="#19DCCC" offset="100%"></stop>
        </linearGradient>
    </defs>
    <g id="Page-1" stroke="none" stroke-width="1" fill="none" fill-rule="evenodd">
        <g id="BOGO_01" transform="translate(-20.000000, -146.000000)">
            <g id="Main-Graphic" transform="translate(20.000000, 146.000000)">
                <rect id="Rectangle-3" opacity="0.5" x="0" y="0" width="320" height="254"></rect>
                <g id="Page-1" transform="translate(2.000000, 6.000000)">
                    <path d="M289.787787,51.7550281 C289.808624,51.4727908 289.666816,51.2021444 289.423139,51.0584178 L287.498612,49.9230938 L287.341176,47.6924342 C287.322076,47.4096174 287.147277,47.1650504 286.881605,47.0555168 C286.619406,46.9483014 286.319585,46.9987216 286.107742,47.1864935 L284.434416,48.668384 L282.266212,48.1282502 C281.991858,48.0598642 281.702455,48.1537501 281.519553,48.3699195 C281.33665,48.5866685 281.292082,48.8880306 281.406107,49.1476657 L282.296309,51.1992467 L281.11381,53.0960897 C280.962742,53.3365999 280.962163,53.6414393 281.111495,53.8819495 C281.183846,53.9990172 281.284558,54.0905849 281.401476,54.1514369 C281.526498,54.2163456 281.669463,54.2459023 281.815322,54.2314138 L284.038513,54.0175625 L285.475108,55.730111 C285.538777,55.8066106 285.616337,55.8674626 285.702,55.9115079 C285.704894,55.9132465 285.708367,55.9149851 285.710682,55.9161442 C286.075329,56.1056546 286.523903,55.9630872 286.713173,55.5979753 C286.76295,55.5011917 286.790154,55.3991922 286.795942,55.2971927 L287.253777,53.228805 L289.324742,52.3902068 C289.586941,52.2841505 289.766371,52.0378449 289.787787,51.7550281" id="Fill-3" fill="#3FD8D4"></path>
                    <path d="M175.574327,77.2793388 C175.574327,77.2793388 173.195757,73.2225388 170.64141,75.5153388 C168.087863,77.8089388 173.812571,83.2769388 176.366917,83.0121388 C178.920464,82.7473388 182.356087,74.8977388 179.889629,74.1049388 C177.42397,73.3113388 175.574327,77.2793388 175.574327,77.2793388" id="Fill-5" fill="#F16865"></path>
                    <path d="M60.749486,85.21528 C60.3044529,83.09448 60.1294758,80.46488 59.0244835,78.57528 C58.1967379,77.15848 55.8573181,77.73208 55.9020611,79.42168 C55.9619847,81.70728 57.2651247,84.24488 58.2958117,86.25128 C58.8702799,87.36968 59.8690076,89.75848 61.3966616,89.79848 C61.4549873,89.79928 61.5029262,89.75768 61.5205038,89.70328 C61.9343766,88.39768 61.018743,86.49688 60.749486,85.21528" id="Fill-9" fill="#00ACB6"></path>
                    <path d="M66.1941501,78.18136 C65.9097125,75.93816 62.9934275,75.93816 62.7081908,78.18136 C62.3174885,81.24936 61.9563486,86.91656 64.3924453,89.26936 C64.6569084,89.52536 65.1706539,89.43256 65.2537481,89.04136 C65.6252748,87.29416 65.5797328,85.39256 65.7563079,83.60936 C65.9240941,81.89576 66.4122723,79.89976 66.1941501,78.18136" id="Fill-11" fill="#00ACB6"></path>
                    <path d="M70.3591644,78.8544 C69.3708234,80.132 69.1047623,82.1632 68.6621262,83.6888 C68.2450575,85.1232 67.548345,86.884 67.8247929,88.4008 C67.8998972,88.812 68.4208336,88.964 68.7500142,88.7776 C69.9460906,88.1048 70.4917954,86.2416 70.9456173,85.0496 C71.5176885,83.5456 72.4892509,81.8504 72.7936631,80.2736 C73.0389506,79.0048 71.3411135,77.5872 70.3591644,78.8544" id="Fill-13" fill="#00ACB6"></path>
                    <path d="M6.39025344,66.41808 C6.39744427,65.69088 6.39904224,64.96368 6.39904224,64.23648 C6.39904224,63.51008 6.39744427,62.78288 6.39025344,62.05568 C6.39025344,62.07328 6.32713384,61.19248 6.36868092,61.15248 C4.82664529,62.66848 3.07128142,63.88288 1.10978015,64.79008 C0.882070229,64.89568 1.07941883,67.62528 1.07941883,67.87408 C1.07941883,68.09808 1.27117455,70.88448 1.10978015,70.95888 C3.07128142,70.05168 4.82664529,68.83728 6.36868092,67.32128 C6.43979033,67.25168 6.39025344,66.43888 6.39025344,66.41808" id="Fill-41" fill="#00ACB6"></path>
                    <path d="M301.074619,5.49696 C301.08181,4.76976 301.083408,4.04256 301.083408,3.31536 C301.083408,2.58896 301.08181,1.86176 301.074619,1.13456 C301.075418,1.18736 301.032273,0.24256 301.053047,0.23136 L296.963856,2.54896 C296.910324,2.57936 296.941484,3.48016 296.942283,3.45216 C296.934294,4.17936 296.932696,4.90656 296.932696,5.63296 C296.932696,6.36016 296.934294,7.08736 296.942283,7.81376 C296.941484,7.76256 296.983831,8.70656 296.963856,8.71776 L301.053047,6.40016 C301.106579,6.36976 301.074619,5.46896 301.074619,5.49696" id="Fill-49" fill="#00ACB6"></path>
                    <path d="M232.976397,102.812 C230.982137,102.0256 229.307471,100.732 228.041883,99 C228.095415,99.0728 228.02031,99.8808 228.02031,99.9032 C228.01232,100.6304 228.010722,101.3576 228.010722,102.084 C228.010722,102.8112 228.01232,103.5384 228.02031,104.2656 C228.021109,104.3344 227.961985,105.0592 228.041883,105.1688 C229.307471,106.9008 230.982137,108.1944 232.976397,108.9808 C232.84057,108.9272 233.006758,106.1016 233.006758,105.896 C233.006758,105.668 233.179338,102.892 232.976397,102.812" id="Fill-51" fill="#3FD8D4"></path>
                    <path d="M123.285325,94.9304 C120.8716,94.7616 118.71275,93.7488 117.039681,92 C117.082027,92.0456 117.01731,92.9144 117.01731,92.9032 C117.010119,93.6304 117.008521,94.3576 117.008521,95.0848 C117.008521,95.812 117.010119,96.5384 117.01731,97.2656 C117.01731,97.2944 116.966175,98.0928 117.039681,98.1688 C118.71275,99.9184 120.8716,100.9304 123.285325,101.0992 C123.189447,101.0928 123.473885,94.9432 123.285325,94.9304" id="Fill-59" fill="#F16865"></path>
                    <g id="Group-4" opacity="0.200000003" transform="translate(0.000000, 231.000000)">
                        <path d="M299.130616,7.5636439 C299.159548,7.17406315 298.96411,6.80103515 298.627554,6.60240217 L295.970537,5.03580281 L295.753842,1.95640051 C295.727272,1.56563742 295.485188,1.2280796 295.11911,1.07614902 C294.757756,0.928356627 294.343261,0.999296975 294.050399,1.25763808 L291.741155,3.3030848 L288.748173,2.55761997 C288.369105,2.46303283 287.969962,2.59309014 287.71725,2.8910396 C287.464538,3.19076258 287.403722,3.60694595 287.5596,3.96460355 L288.788914,6.79630579 L287.156914,9.41518699 C286.948486,9.74624195 286.947896,10.1671547 287.153962,10.4999832 C287.253748,10.6607813 287.392503,10.7872916 287.554286,10.8718288 C287.726697,10.9610954 287.923907,11.001295 288.12525,10.9817864 L291.194991,10.6862016 L293.177716,13.0502887 C293.265693,13.156108 293.372564,13.2406453 293.490654,13.3015358 C293.494787,13.3033093 293.500101,13.3056739 293.502463,13.3080386 C294.006115,13.5693356 294.624905,13.3724761 294.886473,12.8687996 C294.955556,12.7351953 294.992754,12.5939058 295.00102,12.4532074 L295.6328,9.59785839 L298.491751,8.44034837 C298.853696,8.29314715 299.101094,7.95440698 299.130616,7.5636439" id="Fill-1" fill="#DD375A"></path>
                        <path d="M6.19567583,2.6176 C4.14548753,2.6488 2.26068855,1.9448 0.730637659,0.5776 C0.768189822,0.6104 0.70906514,1.5064 0.70906514,1.4808 C0.7018743,2.208 0.700276336,2.9344 0.700276336,3.6624 C0.700276336,4.3888 0.7018743,5.116 0.70906514,5.8432 C0.709864122,5.8528 0.662724173,6.6848 0.730637659,6.7464 C2.26068855,8.1144 4.14548753,8.8176 6.19567583,8.7864 C6.27397608,8.7856 6.21165547,2.6176 6.19567583,2.6176" id="Fill-63" fill="#F16865"></path>
                    </g>
                    <path d="M295.825729,130.768 C293.8858,129.924 291.984222,129.0016 290.120197,128 C290.307159,128.1 290.089036,130.8392 290.089036,131.084 C290.089036,131.3584 289.869316,134.0336 290.120197,134.168 C291.984222,135.1696 293.8858,136.0928 295.825729,136.9368 C295.67552,136.8712 295.856889,134.068 295.856889,133.852 C295.856889,133.612 296.043851,130.8632 295.825729,130.768" id="Fill-67" fill="#F16865"></path>
                </g>
                <g id="Group-3" transform="translate(10.000000, 117.000000)">
                    <path d="M88.3428,21.15904 C85.4164,24.41264 80.642,26.08544 76.0244,27.70304 C75.3132,27.95264 74.6076,28.19984 73.9132,28.45024 C70.7756,29.58384 67.6236,30.56944 64.4932,31.39664 C64.6356,31.08704 64.778,30.77664 64.9204,30.46624 C67.7068,24.38704 70.3396,18.64544 74.4348,14.01904 C76.6284,11.54064 80.0428,9.36624 83.2748,8.69664 C84.682,8.40544 86.0556,8.39904 87.278,8.77824 C89.1116,9.34784 90.2396,10.48304 90.726,12.24944 C91.4908,15.02704 90.4884,18.77424 88.3428,21.15904 M39.998,28.45024 C39.3036,28.19984 38.598,27.95264 37.8868,27.70304 C33.2692,26.08544 28.4948,24.41264 25.5684,21.15904 C23.4228,18.77424 22.4204,15.02704 23.1852,12.24944 C23.6716,10.48304 24.7988,9.34784 26.6332,8.77824 C27.8564,8.39904 29.2292,8.40544 30.6364,8.69664 C33.8684,9.36624 37.2828,11.54064 39.4756,14.01904 C43.5716,18.64544 46.2036,24.38704 48.9908,30.46624 C49.1332,30.77664 49.2756,31.08704 49.418,31.39664 C46.2884,30.56944 43.1356,29.58384 39.998,28.45024 M98.4228,10.13104 C97.2092,5.72224 94.0916,2.53424 89.6436,1.15424 C81.8372,-1.26816 73.1892,3.38224 68.458,8.72784 C65.0116,12.62064 62.502,17.03264 60.3004,21.52224 C60.2068,21.51504 60.114,21.50784 60.0188,21.50784 L53.6036,21.50784 C51.4036,17.02384 48.8956,12.61584 45.454,8.72784 C40.722,3.38224 32.074,-1.26816 24.2676,1.15424 C19.8196,2.53424 16.702,5.72224 15.4884,10.13104 C14.006,15.51584 15.6716,22.09344 19.6332,26.49744 C23.9268,31.27104 29.9412,33.37824 35.2468,35.23744 C35.934,35.47744 36.6156,35.71664 37.286,35.95904 C42.4204,37.81264 47.5988,39.30064 52.6812,40.37984 L54.1828,33.31504 L56.9556,31.98864 L59.7284,33.31504 L61.23,40.37984 C66.3116,39.30064 71.4916,37.81264 76.6252,35.95904 C77.2948,35.71664 77.9764,35.47744 78.6636,35.23744 C83.97,33.37824 89.9844,31.27104 94.278,26.49744 C98.2396,22.09344 99.9052,15.51584 98.4228,10.13104" id="Fill-80" fill="#DD375A"></path>
                    <polygon id="Fill-82" fill="url(#linearGradient-1)" points="0.0584 60.9792 113.8528 60.9792 113.8528 27.7168 0.0584 27.7168"></polygon>
                    <polygon id="Fill-84" fill="url(#linearGradient-2)" points="6.7112 119.5216 107.2008 119.5216 107.2008 60.9792 6.7112 60.9792"></polygon>
                    <polygon id="Fill-85" fill="#008A91" points="6.7112 77.6104 107.2008 77.6104 107.2008 60.9792 6.7112 60.9792"></polygon>
                    <polygon id="Fill-86" fill="#FFFFFF" opacity="0.243829257" points="70.4008 119.5216 81.1536 119.5216 81.1536 27.7168 70.4008 27.7168"></polygon>
                    <polygon id="Fill-87" fill="#DE4B5E" points="43.1312 119.5216 70.7792 119.5216 70.7792 27.7168 43.1312 27.7168"></polygon>
                </g>
            </g>
        </g>
    </g>
</svg>