<?xml version="1.0" encoding="UTF-8"?>
<svg width="255px" height="120px" viewBox="0 0 255 120" version="1.1" xmlns="http://www.w3.org/2000/svg" xmlns:xlink="http://www.w3.org/1999/xlink">
    <!-- Generator: Sketch 46.2 (44496) - http://www.bohemiancoding.com/sketch -->
    <title>Main Graphic</title>
    <desc>Created with Sketch.</desc>
    <defs>
        <linearGradient x1="0%" y1="100%" x2="140.656101%" y2="0%" id="linearGradient-1">
            <stop stop-color="#00ADB7" offset="0%"></stop>
            <stop stop-color="#19DCCC" offset="100%"></stop>
        </linearGradient>
        <linearGradient x1="0%" y1="100%" x2="160.383576%" y2="-14.6208437%" id="linearGradient-2">
            <stop stop-color="#00ADB7" offset="0%"></stop>
            <stop stop-color="#19DCCC" offset="100%"></stop>
        </linearGradient>
    </defs>
    <g id="Page-1" stroke="none" stroke-width="1" fill="none" fill-rule="evenodd">
        <g id="BOGO_01" transform="translate(-30.000000, -263.000000)">
            <g id="Main-Graphic" transform="translate(30.000000, 263.000000)">
                <g id="Group-2">
                    <path d="M88.3428,21.15904 C85.4164,24.41264 80.642,26.08544 76.0244,27.70304 C75.3132,27.95264 74.6076,28.19984 73.9132,28.45024 C70.7756,29.58384 67.6236,30.56944 64.4932,31.39664 C64.6356,31.08704 64.778,30.77664 64.9204,30.46624 C67.7068,24.38704 70.3396,18.64544 74.4348,14.01904 C76.6284,11.54064 80.0428,9.36624 83.2748,8.69664 C84.682,8.40544 86.0556,8.39904 87.278,8.77824 C89.1116,9.34784 90.2396,10.48304 90.726,12.24944 C91.4908,15.02704 90.4884,18.77424 88.3428,21.15904 M39.998,28.45024 C39.3036,28.19984 38.598,27.95264 37.8868,27.70304 C33.2692,26.08544 28.4948,24.41264 25.5684,21.15904 C23.4228,18.77424 22.4204,15.02704 23.1852,12.24944 C23.6716,10.48304 24.7988,9.34784 26.6332,8.77824 C27.8564,8.39904 29.2292,8.40544 30.6364,8.69664 C33.8684,9.36624 37.2828,11.54064 39.4756,14.01904 C43.5716,18.64544 46.2036,24.38704 48.9908,30.46624 C49.1332,30.77664 49.2756,31.08704 49.418,31.39664 C46.2884,30.56944 43.1356,29.58384 39.998,28.45024 M98.4228,10.13104 C97.2092,5.72224 94.0916,2.53424 89.6436,1.15424 C81.8372,-1.26816 73.1892,3.38224 68.458,8.72784 C65.0116,12.62064 62.502,17.03264 60.3004,21.52224 C60.2068,21.51504 60.114,21.50784 60.0188,21.50784 L53.6036,21.50784 C51.4036,17.02384 48.8956,12.61584 45.454,8.72784 C40.722,3.38224 32.074,-1.26816 24.2676,1.15424 C19.8196,2.53424 16.702,5.72224 15.4884,10.13104 C14.006,15.51584 15.6716,22.09344 19.6332,26.49744 C23.9268,31.27104 29.9412,33.37824 35.2468,35.23744 C35.934,35.47744 36.6156,35.71664 37.286,35.95904 C42.4204,37.81264 47.5988,39.30064 52.6812,40.37984 L54.1828,33.31504 L56.9556,31.98864 L59.7284,33.31504 L61.23,40.37984 C66.3116,39.30064 71.4916,37.81264 76.6252,35.95904 C77.2948,35.71664 77.9764,35.47744 78.6636,35.23744 C83.97,33.37824 89.9844,31.27104 94.278,26.49744 C98.2396,22.09344 99.9052,15.51584 98.4228,10.13104" id="Fill-80" fill="#DD375A"></path>
                    <polygon id="Fill-82" fill="url(#linearGradient-1)" points="0.0584 60.9792 113.8528 60.9792 113.8528 27.7168 0.0584 27.7168"></polygon>
                    <polygon id="Fill-84" fill="url(#linearGradient-2)" points="6.7112 119.5216 107.2008 119.5216 107.2008 60.9792 6.7112 60.9792"></polygon>
                    <polygon id="Fill-85" fill="#008A91" points="6.7112 77.6104 107.2008 77.6104 107.2008 60.9792 6.7112 60.9792"></polygon>
                    <polygon id="Fill-86" fill="#FFFFFF" opacity="0.243829257" points="70.4008 119.5216 81.1536 119.5216 81.1536 27.7168 70.4008 27.7168"></polygon>
                    <polygon id="Fill-87" fill="#DE4B5E" points="43.1312 119.5216 70.7792 119.5216 70.7792 27.7168 43.1312 27.7168"></polygon>
                </g>
                <path d="M143.7,69.416 L142.908,71.792 L151.98,71.792 C151.764,72.692 151.26,73.412 150.504,73.952 C149.388,74.744 147.696,75.14 145.428,75.14 L143.196,75.14 L143.196,77.948 C143.988,77.948 144.78,78.2 145.5,78.704 C146.148,79.136 146.76,79.712 147.336,80.504 L153.78,89 L159.504,89 L151.728,79.208 C150.936,78.2 150.396,77.552 150.108,77.336 C152.016,76.904 153.528,76.112 154.68,74.96 C155.472,74.096 156.012,73.016 156.228,71.792 L159.972,71.792 L160.764,69.416 L156.3,69.416 C156.156,67.94 155.688,66.68 154.932,65.672 L159.936,65.672 L160.728,63.296 L143.628,63.296 L142.836,65.672 L146.688,65.672 C148.452,65.672 149.784,66.032 150.72,66.824 C151.44,67.436 151.872,68.3 152.052,69.416 L143.7,69.416 Z M177.295312,89 L171.353906,89 L171.353906,70.0859375 L165.517969,71.7910156 L165.517969,67.2910156 L176.750391,63.40625 L177.295312,63.40625 L177.295312,89 Z M190.812891,88.296875 C190.812891,89.0117223 190.719142,89.7265589 190.531641,90.4414062 C190.34414,91.1562536 190.08633,91.8447233 189.758203,92.5068359 C189.430076,93.1689486 189.046291,93.7900362 188.606836,94.3701172 C188.167381,94.9501982 187.695706,95.4570291 187.191797,95.890625 L184.203516,94.484375 C184.391017,94.0859355 184.593163,93.6845723 184.809961,93.2802734 C185.026759,92.8759745 185.228905,92.4453148 185.416406,91.9882812 C185.603907,91.5312477 185.762109,91.0302762 185.891016,90.4853516 C186.019923,89.940427 186.084375,89.3222691 186.084375,88.6308594 L186.084375,84.5351562 L190.830469,84.5351562 L190.812891,88.296875 Z M211.976953,70.2441406 C211.976953,71.4863343 211.669339,72.5820265 211.054102,73.53125 C210.438864,74.4804735 209.592193,75.2421846 208.514062,75.8164062 C209.732819,76.4140655 210.699606,77.2314401 211.414453,78.2685547 C212.1293,79.3056692 212.486719,80.533196 212.486719,81.9511719 C212.486719,83.1816468 212.264065,84.2568313 211.81875,85.1767578 C211.373435,86.0966843 210.758207,86.8671844 209.973047,87.4882812 C209.187887,88.1093781 208.250396,88.5751938 207.160547,88.8857422 C206.070698,89.1962906 204.887116,89.3515625 203.609766,89.3515625 C202.320697,89.3515625 201.128326,89.1962906 200.032617,88.8857422 C198.936909,88.5751938 197.990629,88.1093781 197.19375,87.4882812 C196.396871,86.8671844 195.769924,86.0966843 195.312891,85.1767578 C194.855857,84.2568313 194.627344,83.1816468 194.627344,81.9511719 C194.627344,81.2480434 194.721093,80.5859406 194.908594,79.9648438 C195.096095,79.3437469 195.365623,78.7753932 195.717187,78.2597656 C196.068752,77.744138 196.493552,77.2812521 196.991602,76.8710938 C197.489651,76.4609354 198.049216,76.1093765 198.670312,75.8164062 C197.580463,75.2421846 196.725003,74.4804735 196.103906,73.53125 C195.482809,72.5820265 195.172266,71.4863343 195.172266,70.2441406 C195.172266,69.0722598 195.380271,68.0380904 195.796289,67.1416016 C196.212307,66.2451127 196.792379,65.4921905 197.536523,64.8828125 C198.280668,64.2734345 199.165425,63.8134781 200.19082,63.5029297 C201.216216,63.1923813 202.338275,63.0371094 203.557031,63.0371094 C204.787506,63.0371094 205.918354,63.1923813 206.949609,63.5029297 C207.980865,63.8134781 208.868551,64.2734345 209.612695,64.8828125 C210.35684,65.4921905 210.936912,66.2451127 211.35293,67.1416016 C211.768947,68.0380904 211.976953,69.0722598 211.976953,70.2441406 Z M206.545312,81.4765625 C206.545312,80.4218697 206.272854,79.6103544 205.72793,79.0419922 C205.183005,78.47363 204.465239,78.1894531 203.574609,78.1894531 C202.68398,78.1894531 201.963284,78.47363 201.4125,79.0419922 C200.861716,79.6103544 200.586328,80.4218697 200.586328,81.4765625 C200.586328,81.9921901 200.65957,82.4550761 200.806055,82.8652344 C200.95254,83.2753927 201.157616,83.6210923 201.421289,83.9023438 C201.684962,84.1835952 202.004295,84.4003899 202.379297,84.5527344 C202.754299,84.7050789 203.164451,84.78125 203.609766,84.78125 C204.488676,84.78125 205.197654,84.4882842 205.736719,83.9023438 C206.275784,83.3164033 206.545312,82.5078177 206.545312,81.4765625 Z M206.035547,70.5605469 C206.035547,69.6464798 205.827541,68.9257839 205.411523,68.3984375 C204.995506,67.8710911 204.377348,67.6074219 203.557031,67.6074219 C202.760152,67.6074219 202.153713,67.8681615 201.737695,68.3896484 C201.321678,68.9111354 201.113672,69.634761 201.113672,70.5605469 C201.113672,71.4746139 201.324607,72.2128878 201.746484,72.7753906 C202.168361,73.3378934 202.789449,73.6191406 203.609766,73.6191406 C204.418363,73.6191406 205.024803,73.3378934 205.429102,72.7753906 C205.8334,72.2128878 206.035547,71.4746139 206.035547,70.5605469 Z M233.334375,78.5410156 C233.334375,80.3925874 233.11758,81.9951104 232.683984,83.3486328 C232.250388,84.7021552 231.64102,85.8242143 230.855859,86.7148438 C230.070699,87.6054732 229.133209,88.267576 228.043359,88.7011719 C226.95351,89.1347678 225.75235,89.3515625 224.439844,89.3515625 C223.115618,89.3515625 221.90567,89.1347678 220.809961,88.7011719 C219.714252,88.267576 218.773832,87.6054732 217.988672,86.7148438 C217.203512,85.8242143 216.591213,84.7021552 216.151758,83.3486328 C215.712302,81.9951104 215.492578,80.3925874 215.492578,78.5410156 L215.492578,73.8652344 C215.492578,72.0253814 215.709373,70.425788 216.142969,69.0664062 C216.576565,67.7070245 217.185934,66.5820357 217.971094,65.6914062 C218.756254,64.8007768 219.693745,64.138674 220.783594,63.7050781 C221.873443,63.2714822 223.080462,63.0546875 224.404687,63.0546875 C225.717194,63.0546875 226.921284,63.2714822 228.016992,63.7050781 C229.112701,64.138674 230.053121,64.8007768 230.838281,65.6914062 C231.623441,66.5820357 232.23574,67.7070245 232.675195,69.0664062 C233.114651,70.425788 233.334375,72.0253814 233.334375,73.8652344 L233.334375,78.5410156 Z M227.410547,73.109375 C227.410547,72.0898387 227.340235,71.2314488 227.199609,70.5341797 C227.058984,69.8369106 226.859767,69.2714865 226.601953,68.8378906 C226.344139,68.4042947 226.030666,68.0937509 225.661523,67.90625 C225.292381,67.7187491 224.87344,67.625 224.404687,67.625 C223.935935,67.625 223.516994,67.7187491 223.147852,67.90625 C222.778709,68.0937509 222.468165,68.4042947 222.216211,68.8378906 C221.964257,69.2714865 221.770899,69.8369106 221.636133,70.5341797 C221.501367,71.2314488 221.433984,72.0898387 221.433984,73.109375 L221.433984,79.2617188 C221.433984,80.3046927 221.501367,81.1777309 221.636133,81.8808594 C221.770899,82.5839879 221.967186,83.1494119 222.225,83.5771484 C222.482814,84.004885 222.799217,84.3124991 223.174219,84.5 C223.549221,84.6875009 223.971091,84.78125 224.439844,84.78125 C224.896877,84.78125 225.309959,84.6875009 225.679102,84.5 C226.048244,84.3124991 226.361717,84.004885 226.619531,83.5771484 C226.877345,83.1494119 227.073632,82.5839879 227.208398,81.8808594 C227.343165,81.1777309 227.410547,80.3046927 227.410547,79.2617188 L227.410547,73.109375 Z M254.182031,78.5410156 C254.182031,80.3925874 253.965237,81.9951104 253.531641,83.3486328 C253.098045,84.7021552 252.488676,85.8242143 251.703516,86.7148438 C250.918355,87.6054732 249.980865,88.267576 248.891016,88.7011719 C247.801166,89.1347678 246.600007,89.3515625 245.2875,89.3515625 C243.963275,89.3515625 242.753326,89.1347678 241.657617,88.7011719 C240.561909,88.267576 239.621488,87.6054732 238.836328,86.7148438 C238.051168,85.8242143 237.438869,84.7021552 236.999414,83.3486328 C236.559959,81.9951104 236.340234,80.3925874 236.340234,78.5410156 L236.340234,73.8652344 C236.340234,72.0253814 236.557029,70.425788 236.990625,69.0664062 C237.424221,67.7070245 238.03359,66.5820357 238.81875,65.6914062 C239.60391,64.8007768 240.541401,64.138674 241.63125,63.7050781 C242.721099,63.2714822 243.928118,63.0546875 245.252344,63.0546875 C246.56485,63.0546875 247.76894,63.2714822 248.864648,63.7050781 C249.960357,64.138674 250.900777,64.8007768 251.685937,65.6914062 C252.471098,66.5820357 253.083396,67.7070245 253.522852,69.0664062 C253.962307,70.425788 254.182031,72.0253814 254.182031,73.8652344 L254.182031,78.5410156 Z M248.258203,73.109375 C248.258203,72.0898387 248.187891,71.2314488 248.047266,70.5341797 C247.90664,69.8369106 247.707423,69.2714865 247.449609,68.8378906 C247.191796,68.4042947 246.878322,68.0937509 246.50918,67.90625 C246.140037,67.7187491 245.721096,67.625 245.252344,67.625 C244.783591,67.625 244.36465,67.7187491 243.995508,67.90625 C243.626365,68.0937509 243.315822,68.4042947 243.063867,68.8378906 C242.811913,69.2714865 242.618555,69.8369106 242.483789,70.5341797 C242.349023,71.2314488 242.281641,72.0898387 242.281641,73.109375 L242.281641,79.2617188 C242.281641,80.3046927 242.349023,81.1777309 242.483789,81.8808594 C242.618555,82.5839879 242.814842,83.1494119 243.072656,83.5771484 C243.33047,84.004885 243.646873,84.3124991 244.021875,84.5 C244.396877,84.6875009 244.818748,84.78125 245.2875,84.78125 C245.744534,84.78125 246.157615,84.6875009 246.526758,84.5 C246.8959,84.3124991 247.209374,84.004885 247.467187,83.5771484 C247.725001,83.1494119 247.921288,82.5839879 248.056055,81.8808594 C248.190821,81.1777309 248.258203,80.3046927 248.258203,79.2617188 L248.258203,73.109375 Z" id="₹1,800" fill="#00ADB7"></path>
                <path d="M159.266602,46.9023438 L162.438477,31.3828125 L165.992676,31.3828125 L161.234863,52 L157.808105,52 L153.885742,36.9477539 L149.878418,52 L146.4375,52 L141.679688,31.3828125 L145.233887,31.3828125 L148.434082,46.8740234 L152.370605,31.3828125 L155.372559,31.3828125 L159.266602,46.9023438 Z M167.446289,44.1977539 C167.446289,43.083816 167.609129,42.052495 167.934814,41.1037598 C168.2605,40.1550246 168.72778,39.3313837 169.33667,38.6328125 C169.94556,37.9342413 170.68896,37.3867207 171.566895,36.9902344 C172.444829,36.593748 173.44075,36.3955078 174.554688,36.3955078 C175.678066,36.3955078 176.683427,36.593748 177.570801,36.9902344 C178.458175,37.3867207 179.206296,37.9342413 179.815186,38.6328125 C180.424075,39.3313837 180.888996,40.1550246 181.209961,41.1037598 C181.530926,42.052495 181.691406,43.083816 181.691406,44.1977539 L181.691406,44.4951172 C181.691406,45.609055 181.530926,46.6427361 181.209961,47.5961914 C180.888996,48.5496467 180.424075,49.3732875 179.815186,50.0671387 C179.206296,50.7609898 178.460535,51.3037904 177.577881,51.6955566 C176.695227,52.0873229 175.696946,52.2832031 174.583008,52.2832031 C173.45963,52.2832031 172.456629,52.0873229 171.573975,51.6955566 C170.69132,51.3037904 169.94556,50.7609898 169.33667,50.0671387 C168.72778,49.3732875 168.2605,48.5496467 167.934814,47.5961914 C167.609129,46.6427361 167.446289,45.609055 167.446289,44.4951172 L167.446289,44.1977539 Z M170.887207,44.4951172 C170.887207,45.1842482 170.958007,45.8356089 171.099609,46.4492188 C171.241212,47.0628286 171.463052,47.5985491 171.765137,48.0563965 C172.067222,48.5142438 172.451902,48.8753242 172.919189,49.1396484 C173.386477,49.4039727 173.941078,49.5361328 174.583008,49.5361328 C175.215498,49.5361328 175.765379,49.4039727 176.232666,49.1396484 C176.699954,48.8753242 177.082274,48.5142438 177.379639,48.0563965 C177.677003,47.5985491 177.898844,47.0628286 178.045166,46.4492188 C178.191488,45.8356089 178.264648,45.1842482 178.264648,44.4951172 L178.264648,44.1977539 C178.264648,43.518063 178.191488,42.8737823 178.045166,42.2648926 C177.898844,41.6560028 177.674643,41.1226423 177.372559,40.6647949 C177.070474,40.2069476 176.685793,39.8411472 176.218506,39.5673828 C175.751218,39.2936184 175.196618,39.1567383 174.554688,39.1567383 C173.912757,39.1567383 173.362877,39.2936184 172.905029,39.5673828 C172.447182,39.8411472 172.067222,40.2069476 171.765137,40.6647949 C171.463052,41.1226423 171.241212,41.6560028 171.099609,42.2648926 C170.958007,42.8737823 170.887207,43.518063 170.887207,44.1977539 L170.887207,44.4951172 Z M192.873047,39.8222656 C192.646483,39.784505 192.417563,39.756185 192.186279,39.7373047 C191.954996,39.7184244 191.716635,39.7089844 191.471191,39.7089844 C190.640458,39.7089844 189.965497,39.8694645 189.446289,40.1904297 C188.927081,40.5113948 188.54004,40.9550753 188.285156,41.5214844 L188.285156,52 L184.844238,52 L184.844238,36.6787109 L188.129395,36.6787109 L188.214355,38.3920898 C188.601402,37.7690399 189.080482,37.2805193 189.651611,36.9265137 C190.22274,36.572508 190.895341,36.3955078 191.669434,36.3955078 C191.867677,36.3955078 192.091877,36.4167478 192.342041,36.4592285 C192.592205,36.5017092 192.773925,36.5465492 192.887207,36.59375 L192.873047,39.8222656 Z M200.316406,32.9545898 L200.316406,36.6787109 L203.020996,36.6787109 L203.020996,39.2275391 L200.316406,39.2275391 L200.316406,47.7802734 C200.316406,48.129559 200.354166,48.4127593 200.429688,48.6298828 C200.505209,48.8470063 200.613769,49.0145665 200.755371,49.1325684 C200.896973,49.2505703 201.064534,49.3308103 201.258057,49.373291 C201.45158,49.4157717 201.66634,49.4370117 201.902344,49.4370117 C202.138348,49.4370117 202.367268,49.4204917 202.589111,49.3874512 C202.810955,49.3544106 202.983235,49.3237306 203.105957,49.2954102 L203.105957,51.9575195 C202.832193,52.0330407 202.513592,52.1062008 202.150146,52.177002 C201.786701,52.2478031 201.3501,52.2832031 200.840332,52.2832031 C200.273923,52.2832031 199.747642,52.207683 199.261475,52.0566406 C198.775307,51.9055982 198.355226,51.6601579 198.001221,51.3203125 C197.647215,50.9804671 197.371095,50.5367866 197.172852,49.9892578 C196.974608,49.441729 196.875488,48.7714883 196.875488,47.9785156 L196.875488,39.2275391 L194.35498,39.2275391 L194.35498,36.6787109 L196.875488,36.6787109 L196.875488,32.9545898 L200.316406,32.9545898 Z M209.289062,38.3496094 C209.817711,37.7359995 210.440752,37.256919 211.158203,36.9123535 C211.875655,36.567788 212.673335,36.3955078 213.55127,36.3955078 C214.297041,36.3955078 214.976722,36.4993479 215.590332,36.7070312 C216.203942,36.9147146 216.727862,37.2474749 217.162109,37.7053223 C217.596356,38.1631696 217.931477,38.7578902 218.16748,39.489502 C218.403484,40.2211137 218.521484,41.1061146 218.521484,42.1445312 L218.521484,52 L215.080566,52 L215.080566,42.1162109 C215.080566,41.058914 214.851646,40.3107932 214.393799,39.8718262 C213.935951,39.4328591 213.263351,39.2133789 212.375977,39.2133789 C211.658525,39.2133789 211.042564,39.3785791 210.528076,39.7089844 C210.013588,40.0393897 209.600587,40.4877901 209.289062,41.0541992 L209.289062,52 L205.848145,52 L205.848145,30.25 L209.289062,30.25 L209.289062,38.3496094 Z" id="Worth" fill="#00ADB7"></path>
                <path d="M147.74707,110.782227 L143.741211,110.782227 L143.741211,115 L142.011719,115 L142.011719,105.046875 L148.334961,105.046875 L148.334961,106.441406 L143.741211,106.441406 L143.741211,109.401367 L147.74707,109.401367 L147.74707,110.782227 Z M158.645508,110.283203 C158.645508,111.039717 158.546388,111.717608 158.348145,112.316895 C158.149901,112.916181 157.87077,113.424314 157.510742,113.841309 C157.150714,114.258303 156.717776,114.578449 156.211914,114.801758 C155.706052,115.025066 155.145511,115.136719 154.530273,115.136719 C153.919593,115.136719 153.361331,115.025066 152.855469,114.801758 C152.349607,114.578449 151.913251,114.258303 151.546387,113.841309 C151.179523,113.424314 150.894695,112.916181 150.691895,112.316895 C150.489094,111.717608 150.387695,111.039717 150.387695,110.283203 L150.387695,109.777344 C150.387695,109.02083 150.489094,108.3418 150.691895,107.740234 C150.894695,107.138669 151.177244,106.628257 151.539551,106.208984 C151.901857,105.789711 152.335935,105.468426 152.841797,105.245117 C153.347659,105.021809 153.905921,104.910156 154.516602,104.910156 C155.131839,104.910156 155.69352,105.021809 156.20166,105.245117 C156.709801,105.468426 157.145018,105.789711 157.507324,106.208984 C157.869631,106.628257 158.149901,107.138669 158.348145,107.740234 C158.546388,108.3418 158.645508,109.02083 158.645508,109.777344 L158.645508,110.283203 Z M156.916016,109.763672 C156.916016,109.20768 156.862468,108.716636 156.755371,108.290527 C156.648274,107.864418 156.492189,107.507814 156.287109,107.220703 C156.08203,106.933592 155.830242,106.715984 155.531738,106.567871 C155.233234,106.419758 154.894859,106.345703 154.516602,106.345703 C154.147459,106.345703 153.81478,106.419758 153.518555,106.567871 C153.222329,106.715984 152.970541,106.933592 152.763184,107.220703 C152.555826,107.507814 152.396322,107.864418 152.284668,108.290527 C152.173014,108.716636 152.117188,109.20768 152.117188,109.763672 L152.117188,110.283203 C152.117188,110.839195 152.173014,111.331378 152.284668,111.759766 C152.396322,112.188153 152.556965,112.547036 152.766602,112.836426 C152.976238,113.125815 153.230304,113.344563 153.528809,113.492676 C153.827313,113.640789 154.161131,113.714844 154.530273,113.714844 C155.295902,113.714844 155.884926,113.42318 156.297363,112.839844 C156.7098,112.256507 156.916016,111.404302 156.916016,110.283203 L156.916016,109.763672 Z M165.025391,111.165039 L163.097656,111.165039 L163.097656,115 L161.368164,115 L161.368164,105.046875 L164.868164,105.046875 C165.437828,105.046875 165.945961,105.111816 166.392578,105.241699 C166.839195,105.371583 167.216307,105.562987 167.523926,105.815918 C167.831545,106.068849 168.065103,106.38216 168.224609,106.755859 C168.384115,107.129559 168.463867,107.562498 168.463867,108.054688 C168.463867,108.720055 168.303224,109.277179 167.981934,109.726074 C167.660643,110.17497 167.212893,110.520181 166.638672,110.761719 L168.874023,114.911133 L168.874023,115 L167.021484,115 L165.025391,111.165039 Z M163.097656,109.777344 L164.875,109.777344 C165.184897,109.777344 165.456054,109.736329 165.688477,109.654297 C165.9209,109.572265 166.114583,109.458334 166.269531,109.3125 C166.42448,109.166666 166.54069,108.993491 166.618164,108.792969 C166.695638,108.592447 166.734375,108.37142 166.734375,108.129883 C166.734375,107.874673 166.697917,107.643393 166.625,107.436035 C166.552083,107.228677 166.44043,107.050945 166.290039,106.902832 C166.139648,106.754719 165.947104,106.640788 165.712402,106.561035 C165.477701,106.481282 165.196291,106.441406 164.868164,106.441406 L163.097656,106.441406 L163.097656,109.777344 Z M177.245117,109.264648 L178.229492,109.264648 C178.516603,109.264648 178.764973,109.227051 178.974609,109.151855 C179.184246,109.07666 179.3597,108.972982 179.500977,108.84082 C179.642253,108.708658 179.74707,108.549155 179.81543,108.362305 C179.883789,108.175455 179.917969,107.9681 179.917969,107.740234 C179.917969,107.266274 179.793784,106.898276 179.54541,106.63623 C179.297037,106.374185 178.917646,106.243164 178.407227,106.243164 C178.188475,106.243164 177.985678,106.276204 177.798828,106.342285 C177.611978,106.408366 177.450196,106.50179 177.313477,106.622559 C177.176757,106.743327 177.069662,106.889159 176.992188,107.060059 C176.914713,107.230958 176.875977,107.423502 176.875977,107.637695 L175.214844,107.637695 C175.214844,107.245766 175.293456,106.883465 175.450684,106.550781 C175.607911,106.218097 175.826659,105.929851 176.106934,105.686035 C176.387208,105.442219 176.722166,105.251954 177.111816,105.115234 C177.501467,104.978515 177.92643,104.910156 178.386719,104.910156 C178.860679,104.910156 179.293618,104.97054 179.685547,105.091309 C180.077476,105.212077 180.413573,105.390949 180.693848,105.62793 C180.974122,105.86491 181.191731,106.159992 181.34668,106.513184 C181.501628,106.866375 181.579102,107.275388 181.579102,107.740234 C181.579102,107.940756 181.547201,108.143554 181.483398,108.348633 C181.419596,108.553712 181.323894,108.750813 181.196289,108.939941 C181.068684,109.12907 180.909181,109.306803 180.717773,109.473145 C180.526366,109.639487 180.303061,109.779622 180.047852,109.893555 C180.353192,109.998373 180.611815,110.131672 180.82373,110.293457 C181.035646,110.455242 181.207682,110.637532 181.339844,110.840332 C181.472006,111.043133 181.568847,111.260741 181.630371,111.493164 C181.691895,111.725587 181.722656,111.964843 181.722656,112.210938 C181.722656,112.675784 181.638347,113.090493 181.469727,113.455078 C181.301106,113.819663 181.067547,114.126138 180.769043,114.374512 C180.470539,114.622885 180.117352,114.812011 179.709473,114.941895 C179.301593,115.071778 178.860679,115.136719 178.386719,115.136719 C177.953774,115.136719 177.540204,115.077475 177.145996,114.958984 C176.751788,114.840494 176.404298,114.663901 176.103516,114.429199 C175.802733,114.194498 175.563477,113.901694 175.385742,113.550781 C175.208007,113.199868 175.119141,112.794273 175.119141,112.333984 L176.780273,112.333984 C176.780273,112.552735 176.81901,112.753254 176.896484,112.935547 C176.973959,113.117839 177.083333,113.273925 177.224609,113.403809 C177.365886,113.533692 177.536783,113.633951 177.737305,113.70459 C177.937827,113.775228 178.161132,113.810547 178.407227,113.810547 C178.922203,113.810547 179.327798,113.673829 179.624023,113.400391 C179.920249,113.126952 180.068359,112.730471 180.068359,112.210938 C180.068359,111.928384 180.025066,111.684571 179.938477,111.479492 C179.851888,111.274413 179.728842,111.104656 179.569336,110.970215 C179.40983,110.835774 179.217286,110.736654 178.991699,110.672852 C178.766112,110.609049 178.512046,110.577148 178.229492,110.577148 L177.245117,110.577148 L177.245117,109.264648 Z M190.768555,110.80957 C190.768555,111.597986 190.691082,112.266762 190.536133,112.815918 C190.381184,113.365074 190.162436,113.811684 189.879883,114.155762 C189.597329,114.499839 189.256675,114.749348 188.85791,114.904297 C188.459145,115.059246 188.013674,115.136719 187.521484,115.136719 C187.033852,115.136719 186.58952,115.059246 186.188477,114.904297 C185.787433,114.749348 185.443361,114.499839 185.15625,114.155762 C184.869139,113.811684 184.646973,113.365074 184.489746,112.815918 C184.332519,112.266762 184.253906,111.597986 184.253906,110.80957 L184.253906,109.203125 C184.253906,108.41471 184.331379,107.747073 184.486328,107.200195 C184.641277,106.653318 184.861164,106.210125 185.145996,105.870605 C185.430828,105.531086 185.773761,105.286134 186.174805,105.135742 C186.575848,104.985351 187.02018,104.910156 187.507812,104.910156 C188.000002,104.910156 188.446613,104.985351 188.847656,105.135742 C189.2487,105.286134 189.591633,105.531086 189.876465,105.870605 C190.161297,106.210125 190.381184,106.653318 190.536133,107.200195 C190.691082,107.747073 190.768555,108.41471 190.768555,109.203125 L190.768555,110.80957 Z M189.107422,108.950195 C189.107422,108.444333 189.072103,108.01937 189.001465,107.675293 C188.930826,107.331216 188.827149,107.053224 188.69043,106.841309 C188.55371,106.629393 188.386231,106.476726 188.187988,106.383301 C187.989745,106.289876 187.763022,106.243164 187.507812,106.243164 C187.252603,106.243164 187.02588,106.289876 186.827637,106.383301 C186.629394,106.476726 186.461915,106.629393 186.325195,106.841309 C186.188476,107.053224 186.084799,107.331216 186.01416,107.675293 C185.943522,108.01937 185.908203,108.444333 185.908203,108.950195 L185.908203,111.048828 C185.908203,111.550133 185.944661,111.976235 186.017578,112.327148 C186.090495,112.678062 186.195312,112.96289 186.332031,113.181641 C186.468751,113.400392 186.637369,113.559895 186.837891,113.660156 C187.038412,113.760417 187.266275,113.810547 187.521484,113.810547 C187.781251,113.810547 188.009114,113.760417 188.205078,113.660156 C188.401043,113.559895 188.566243,113.400392 188.700684,113.181641 C188.835124,112.96289 188.936523,112.678062 189.004883,112.327148 C189.073243,111.976235 189.107422,111.550133 189.107422,111.048828 L189.107422,108.950195 Z M201.648438,111.165039 L199.720703,111.165039 L199.720703,115 L197.991211,115 L197.991211,105.046875 L201.491211,105.046875 C202.060875,105.046875 202.569008,105.111816 203.015625,105.241699 C203.462242,105.371583 203.839354,105.562987 204.146973,105.815918 C204.454591,106.068849 204.68815,106.38216 204.847656,106.755859 C205.007162,107.129559 205.086914,107.562498 205.086914,108.054688 C205.086914,108.720055 204.926271,109.277179 204.60498,109.726074 C204.28369,110.17497 203.83594,110.520181 203.261719,110.761719 L205.49707,114.911133 L205.49707,115 L203.644531,115 L201.648438,111.165039 Z M199.720703,109.777344 L201.498047,109.777344 C201.807944,109.777344 202.0791,109.736329 202.311523,109.654297 C202.543946,109.572265 202.737629,109.458334 202.892578,109.3125 C203.047527,109.166666 203.163737,108.993491 203.241211,108.792969 C203.318685,108.592447 203.357422,108.37142 203.357422,108.129883 C203.357422,107.874673 203.320964,107.643393 203.248047,107.436035 C203.17513,107.228677 203.063477,107.050945 202.913086,106.902832 C202.762695,106.754719 202.570151,106.640788 202.335449,106.561035 C202.100748,106.481282 201.819338,106.441406 201.491211,106.441406 L199.720703,106.441406 L199.720703,109.777344 Z M209.552734,115 L207.830078,115 L207.830078,105.046875 L209.552734,105.046875 L209.552734,115 Z M212.678711,115 L212.678711,105.046875 L215.618164,105.046875 C216.283532,105.046875 216.890785,105.158528 217.439941,105.381836 C217.989098,105.605144 218.460773,105.923012 218.85498,106.335449 C219.249188,106.747886 219.555663,107.245765 219.774414,107.829102 C219.993165,108.412438 220.102539,109.064124 220.102539,109.78418 L220.102539,110.276367 C220.102539,110.996423 219.994304,111.64697 219.777832,112.228027 C219.56136,112.809085 219.253745,113.304685 218.85498,113.714844 C218.456215,114.125002 217.975426,114.441731 217.412598,114.665039 C216.849769,114.888347 216.224287,115 215.536133,115 L212.678711,115 Z M214.408203,106.441406 L214.408203,113.619141 L215.536133,113.619141 C216.005536,113.619141 216.417967,113.542807 216.773438,113.390137 C217.128908,113.237467 217.42399,113.01758 217.658691,112.730469 C217.893393,112.443358 218.069986,112.09245 218.188477,111.677734 C218.306967,111.263019 218.366211,110.795901 218.366211,110.276367 L218.366211,109.770508 C218.366211,108.690424 218.131513,107.865563 217.662109,107.295898 C217.192706,106.726234 216.511398,106.441406 215.618164,106.441406 L214.408203,106.441406 Z M228.642578,110.556641 L224.554688,110.556641 L224.554688,113.619141 L229.333008,113.619141 L229.333008,115 L222.825195,115 L222.825195,105.046875 L229.285156,105.046875 L229.285156,106.441406 L224.554688,106.441406 L224.554688,109.189453 L228.642578,109.189453 L228.642578,110.556641 Z M236.943359,112.436523 C236.943359,112.236002 236.913737,112.05713 236.854492,111.899902 C236.795247,111.742675 236.687013,111.597982 236.529785,111.46582 C236.372558,111.333658 236.156089,111.207195 235.880371,111.086426 C235.604654,110.965657 235.250328,110.839193 234.817383,110.707031 C234.343422,110.565755 233.905926,110.403972 233.504883,110.22168 C233.103839,110.039387 232.758628,109.827475 232.469238,109.585938 C232.179849,109.3444 231.953126,109.066408 231.789062,108.751953 C231.624999,108.437498 231.542969,108.077476 231.542969,107.671875 C231.542969,107.270831 231.628417,106.901694 231.799316,106.564453 C231.970216,106.227212 232.21061,105.935548 232.520508,105.689453 C232.830405,105.443358 233.201821,105.251954 233.634766,105.115234 C234.06771,104.978515 234.546221,104.910156 235.070312,104.910156 C235.630862,104.910156 236.134438,104.991047 236.581055,105.152832 C237.027672,105.314617 237.404784,105.534504 237.712402,105.8125 C238.020021,106.090496 238.255859,106.412921 238.419922,106.779785 C238.583985,107.146649 238.666016,107.537433 238.666016,107.952148 L236.943359,107.952148 C236.943359,107.710611 236.905762,107.488445 236.830566,107.285645 C236.755371,107.082844 236.6403,106.90739 236.485352,106.759277 C236.330403,106.611165 236.134441,106.496094 235.897461,106.414062 C235.660481,106.332031 235.38021,106.291016 235.056641,106.291016 C234.751301,106.291016 234.48698,106.325195 234.263672,106.393555 C234.040363,106.461914 233.854656,106.557617 233.706543,106.680664 C233.55843,106.803712 233.449056,106.949543 233.378418,107.118164 C233.30778,107.286785 233.272461,107.469075 233.272461,107.665039 C233.272461,108.034182 233.446776,108.341796 233.79541,108.587891 C234.144045,108.833986 234.676103,109.061848 235.391602,109.271484 C235.952151,109.435548 236.437498,109.617838 236.847656,109.818359 C237.257815,110.018881 237.598469,110.245604 237.869629,110.498535 C238.140789,110.751466 238.342447,111.036294 238.474609,111.353027 C238.606771,111.669761 238.672852,112.026365 238.672852,112.422852 C238.672852,112.842124 238.589682,113.219237 238.42334,113.554199 C238.256998,113.889162 238.020021,114.17399 237.712402,114.408691 C237.404784,114.643393 237.032229,114.823404 236.594727,114.94873 C236.157224,115.074057 235.669599,115.136719 235.131836,115.136719 C234.653318,115.136719 234.181643,115.071778 233.716797,114.941895 C233.251951,114.812011 232.834963,114.616049 232.46582,114.354004 C232.096678,114.091958 231.799318,113.764976 231.57373,113.373047 C231.348143,112.981118 231.235352,112.520836 231.235352,111.992188 L232.964844,111.992188 C232.964844,112.306642 233.02067,112.576659 233.132324,112.802246 C233.243978,113.027833 233.396646,113.212402 233.590332,113.355957 C233.784018,113.499512 234.01302,113.604329 234.277344,113.67041 C234.541668,113.736491 234.826496,113.769531 235.131836,113.769531 C235.733401,113.769531 236.185708,113.647625 236.48877,113.403809 C236.791831,113.159992 236.943359,112.837567 236.943359,112.436523 Z" id="For-30-Rides" fill="#00ADB7" opacity="0.5"></path>
            </g>
        </g>
    </g>
</svg>