<?xml version="1.0" encoding="UTF-8"?>
<svg width="60px" height="60px" viewBox="0 0 60 60" version="1.1" xmlns="http://www.w3.org/2000/svg" xmlns:xlink="http://www.w3.org/1999/xlink">
    <!-- Generator: Sketch 46.2 (44496) - http://www.bohemiancoding.com/sketch -->
    <title>route_icon</title>
    <desc>Created with Sketch.</desc>
    <defs></defs>
    <g id="Page-1" stroke="none" stroke-width="1" fill="none" fill-rule="evenodd" opacity="0.800000012">
        <g id="BOGO_02" transform="translate(-21.000000, -115.000000)" fill-rule="nonzero" fill="#FFFFFF">
            <g id="Group-2" transform="translate(0.000000, 80.000000)">
                <g id="route_icon" transform="translate(21.000000, 35.000000)">
                    <path d="M11.25,60 C10.35,60 9.508125,59.559375 8.983125,58.828125 L8.773125,58.520625 L1.374375,44.76375 C0.474375,43.119375 1.11022302e-16,41.255625 1.11022302e-16,39.375 C1.11022302e-16,33.170625 5.045625,28.125 11.25,28.125 C17.454375,28.125 22.5,33.170625 22.5,39.375 C22.5,41.259375 22.02375,43.125 21.121875,44.773125 L13.726875,58.520625 L13.509375,58.84125 C12.9825,59.565 12.14625,60 11.25,60 Z M11.25,31.875 C7.11375,31.875 3.75,35.23875 3.75,39.375 C3.75,40.63125 4.066875,41.874375 4.66875,42.97125 L4.674375,42.984375 L11.25,55.209375 L17.825625,42.9825 C18.433125,41.874375 18.75,40.63125 18.75,39.375 C18.75,35.23875 15.38625,31.875 11.25,31.875 Z M48.75,31.875 C47.85,31.875 47.00625,31.4325 46.479375,30.70125 L46.273125,30.39375 L38.87625,16.640625 C37.97625,14.994375 37.5,13.12875 37.5,11.25 C37.5,5.045625 42.545625,-3.55271368e-15 48.75,-3.55271368e-15 C54.954375,-3.55271368e-15 60,5.045625 60,11.25 C60,13.1325 59.52375,15 58.621875,16.64625 L51.25875,30.3375 L51.10125,30.583125 C50.58375,31.385625 49.700625,31.875 48.75,31.875 L48.75,31.875 Z M48.75,3.75 C44.61375,3.75 41.25,7.11375 41.25,11.25 C41.25,12.504375 41.566875,13.749375 42.166875,14.84625 L42.174375,14.8575 L48.75,27.084375 L55.325625,14.8575 C55.933125,13.749375 56.25,12.504375 56.25,11.25 C56.25,7.11375 52.88625,3.75 48.75,3.75 L48.75,3.75 Z M39.375,31.875 L37.5,31.875 C36.463125,31.875 35.625,31.035 35.625,30 C35.625,28.965 36.463125,28.125 37.5,28.125 L39.375,28.125 C40.411875,28.125 41.25,28.965 41.25,30 C41.25,31.035 40.411875,31.875 39.375,31.875 Z M30,31.875 L26.25,31.875 C25.215,31.875 24.375,31.035 24.375,30 C24.375,28.965 25.215,28.125 26.25,28.125 L30,28.125 C31.035,28.125 31.875,28.965 31.875,30 C31.875,31.035 31.035,31.875 30,31.875 Z M22.5,60 L20.625,60 C19.59,60 18.75,59.161875 18.75,58.125 C18.75,57.088125 19.59,56.25 20.625,56.25 L22.5,56.25 C23.535,56.25 24.375,57.088125 24.375,58.125 C24.375,59.161875 23.535,60 22.5,60 Z M44.1825,60 L40.5675,60 C39.530625,60 38.6925,59.161875 38.6925,58.125 C38.6925,57.088125 39.530625,56.25 40.5675,56.25 L44.1825,56.25 C45.219375,56.25 46.0575,57.088125 46.0575,58.125 C46.0575,59.161875 45.219375,60 44.1825,60 Z M33.34125,60 L29.728125,60 C28.693125,60 27.853125,59.161875 27.853125,58.125 C27.853125,57.088125 28.693125,56.25 29.728125,56.25 L33.34125,56.25 C34.378125,56.25 35.21625,57.088125 35.21625,58.125 C35.21625,59.161875 34.378125,60 33.34125,60 Z M51.40875,59.95875 C50.46,59.95875 49.64625,59.240625 49.545,58.27875 C49.438125,57.2475 50.188125,56.326875 51.2175,56.218125 C52.115625,56.12625 52.985625,55.81125 53.7375,55.3125 C54.6,54.73875 55.7625,54.969375 56.338125,55.831875 C56.91375,56.694375 56.68125,57.856875 55.81875,58.4325 C54.5625,59.26875 53.1075,59.795625 51.6075,59.95125 L51.40875,59.95875 Z M58.125,52.6575 L58.059375,52.655625 C57.024375,52.62 56.2125,51.75375 56.25,50.71875 L58.123125,50.7825 L56.25,50.625 C56.25,49.745625 56.055,48.90375 55.665,48.121875 C55.20375,47.195625 55.5825,46.06875 56.510625,45.609375 C57.435,45.148125 58.56375,45.525 59.023125,46.455 C59.671875,47.76 60,49.1625 60,50.625 L59.99625,50.84625 C59.960625,51.85875 59.13,52.6575 58.125,52.6575 L58.125,52.6575 Z M51.72375,45.07875 L51.44625,45.058125 C51.181875,45.01875 50.895,45.005625 50.634375,45 L48.1125,45 C47.075625,45 46.2375,44.161875 46.2375,43.125 C46.2375,42.088125 47.075625,41.25 48.1125,41.25 L50.625,41.25 C51.080625,41.24625 51.5475,41.28375 51.9975,41.349375 C53.02125,41.50125 53.728125,42.455625 53.57625,43.48125 C53.4375,44.41125 52.636875,45.07875 51.72375,45.07875 L51.72375,45.07875 Z M40.884375,45 L37.27125,45 C36.234375,45 35.39625,44.161875 35.39625,43.125 C35.39625,42.088125 36.234375,41.25 37.27125,41.25 L40.884375,41.25 C41.92125,41.25 42.759375,42.088125 42.759375,43.125 C42.759375,44.161875 41.919375,45 40.884375,45 Z M30,45 L28.125,45 C27.09,45 26.25,44.161875 26.25,43.125 C26.25,42.088125 27.09,41.25 28.125,41.25 L30,41.25 C31.035,41.25 31.875,42.088125 31.875,43.125 C31.875,44.161875 31.035,45 30,45 Z" id="Shape"></path>
                    <circle id="Oval" cx="11.25" cy="39.375" r="3.75"></circle>
                    <circle id="Oval" cx="48.75" cy="11.25" r="3.75"></circle>
                </g>
            </g>
        </g>
    </g>
</svg>