<?xml version="1.0" encoding="UTF-8"?>
<svg width="24px" height="24px" viewBox="0 0 24 24" version="1.1" xmlns="http://www.w3.org/2000/svg" xmlns:xlink="http://www.w3.org/1999/xlink">
    <!-- Generator: Sketch 46.2 (44496) - http://www.bohemiancoding.com/sketch -->
    <title>mdpi/selected_route_icon</title>
    <desc>Created with Sketch.</desc>
    <defs></defs>
    <g id="Page-1" stroke="none" stroke-width="1" fill="none" fill-rule="evenodd">
        <g id="BOGO_06" transform="translate(-40.000000, -437.000000)">
            <g id="Group" transform="translate(20.000000, 417.000000)">
                <g id="Title" transform="translate(20.000000, 20.000000)">
                    <g id="ic_homecard_payment">
                        <rect id="bounds" x="0" y="0" width="24" height="24" rx="4"></rect>
                        <g id="Group" transform="translate(1.000000, 3.000000)" fill-rule="nonzero" fill="#A3A3A3">
                            <path d="M5.5,14.6605263 L0.884782609,8.19473684 C-0.406521739,6.08684211 -0.0717391304,3.38684211 1.67391304,1.65789474 C3.77826087,-0.426315789 7.19782609,-0.426315789 9.30217391,1.65789474 C11.0717391,3.41052632 11.3826087,6.08684211 10.0913043,8.19473684 L10.0673913,8.21842105 L5.5,14.6605263 Z M1.69782609,7.67368421 L5.5,13.0026316 L9.30217391,7.67368421 C10.3543478,5.94473684 10.0913043,3.74210526 8.6326087,2.29736842 C6.91086957,0.592105263 4.08913043,0.592105263 2.34347826,2.29736842 C0.908695652,3.74210526 0.645652174,5.94473684 1.69782609,7.67368421 Z" id="Shape"></path>
                            <path d="M5.40434783,7.74473684 L5.40434783,7.74473684 C4.18478261,7.74473684 3.20434783,6.77368421 3.20434783,5.56578947 C3.20434783,4.35789474 4.18478261,3.38684211 5.40434783,3.38684211 C6.62391304,3.38684211 7.60434783,4.35789474 7.60434783,5.56578947 C7.60434783,6.75 6.62391304,7.74473684 5.40434783,7.74473684 Z M5.40434783,4.31052632 C4.71086957,4.31052632 4.16086957,4.85526316 4.16086957,5.54210526 C4.16086957,6.22894737 4.71086957,6.77368421 5.40434783,6.77368421 L5.40434783,6.77368421 C6.09782609,6.77368421 6.64782609,6.22894737 6.64782609,5.54210526 C6.64782609,4.87894737 6.09782609,4.31052632 5.40434783,4.31052632 Z" id="Shape"></path>
                            <path d="M16.5,14.6605263 L11.9086957,8.21842105 L12.6978261,7.67368421 L16.523913,13.0263158 L20.326087,7.69736842 C21.3782609,5.96842105 21.1152174,3.76578947 19.6565217,2.32105263 C17.9347826,0.615789474 15.1130435,0.615789474 13.3673913,2.32105263 L12.673913,1.63421053 C14.7782609,-0.45 18.1978261,-0.45 20.3021739,1.63421053 C22.0717391,3.38684211 22.3826087,6.06315789 21.0913043,8.17105263 L21.0673913,8.19473684 L16.5,14.6605263 Z" id="Shape"></path>
                            <path d="M16.4043478,7.74473684 L16.4043478,7.74473684 C15.1847826,7.74473684 14.2043478,6.77368421 14.2043478,5.56578947 C14.2043478,4.35789474 15.1847826,3.38684211 16.4043478,3.38684211 C17.623913,3.38684211 18.6043478,4.35789474 18.6043478,5.56578947 C18.6043478,6.75 17.623913,7.74473684 16.4043478,7.74473684 Z M16.4043478,4.31052632 C15.7108696,4.31052632 15.1608696,4.85526316 15.1608696,5.54210526 C15.1608696,6.22894737 15.7108696,6.77368421 16.4043478,6.77368421 L16.4043478,6.77368421 C17.0978261,6.77368421 17.6478261,6.22894737 17.6478261,5.54210526 C17.6478261,4.87894737 17.0978261,4.31052632 16.4043478,4.31052632 Z" id="Shape"></path>
                            <g transform="translate(4.543478, 16.342105)" id="Shape">
                                <path d="M0.717391304,1.58684211 C0.310869565,1.58684211 0,1.27894737 0,0.876315789 C0,0.473684211 0.310869565,0.165789474 0.717391304,0.165789474 C1.12391304,0.165789474 1.43478261,0.473684211 1.43478261,0.876315789 C1.43478261,1.27894737 1.12391304,1.58684211 0.717391304,1.58684211 Z M0.717391304,0.639473684 C0.573913043,0.639473684 0.47826087,0.734210526 0.47826087,0.876315789 C0.47826087,1.01842105 0.573913043,1.11315789 0.717391304,1.11315789 C0.860869565,1.11315789 0.956521739,1.01842105 0.956521739,0.876315789 C0.956521739,0.734210526 0.860869565,0.639473684 0.717391304,0.639473684 Z"></path>
                                <path d="M3.58695652,1.58684211 C3.18043478,1.58684211 2.86956522,1.27894737 2.86956522,0.876315789 C2.86956522,0.473684211 3.18043478,0.165789474 3.58695652,0.165789474 C3.99347826,0.165789474 4.30434783,0.473684211 4.30434783,0.876315789 C4.30434783,1.27894737 3.99347826,1.58684211 3.58695652,1.58684211 Z M3.58695652,0.639473684 C3.44347826,0.639473684 3.34782609,0.734210526 3.34782609,0.876315789 C3.34782609,1.01842105 3.44347826,1.11315789 3.58695652,1.11315789 C3.73043478,1.11315789 3.82608696,1.01842105 3.82608696,0.876315789 C3.82608696,0.734210526 3.73043478,0.639473684 3.58695652,0.639473684 Z"></path>
                                <path d="M6.45652174,1.58684211 C6.05,1.58684211 5.73913043,1.27894737 5.73913043,0.876315789 C5.73913043,0.473684211 6.05,0.165789474 6.45652174,0.165789474 C6.86304348,0.165789474 7.17391304,0.473684211 7.17391304,0.876315789 C7.17391304,1.27894737 6.86304348,1.58684211 6.45652174,1.58684211 Z M6.45652174,0.639473684 C6.31304348,0.639473684 6.2173913,0.734210526 6.2173913,0.876315789 C6.2173913,1.01842105 6.31304348,1.11315789 6.45652174,1.11315789 C6.6,1.11315789 6.69565217,1.01842105 6.69565217,0.876315789 C6.69565217,0.734210526 6.6,0.639473684 6.45652174,0.639473684 Z"></path>
                                <path d="M9.32608696,1.58684211 C8.91956522,1.58684211 8.60869565,1.27894737 8.60869565,0.876315789 C8.60869565,0.473684211 8.91956522,0.165789474 9.32608696,0.165789474 C9.7326087,0.165789474 10.0434783,0.473684211 10.0434783,0.876315789 C10.0434783,1.27894737 9.7326087,1.58684211 9.32608696,1.58684211 Z M9.32608696,0.639473684 C9.1826087,0.639473684 9.08695652,0.734210526 9.08695652,0.876315789 C9.08695652,1.01842105 9.1826087,1.11315789 9.32608696,1.11315789 C9.46956522,1.11315789 9.56521739,1.01842105 9.56521739,0.876315789 C9.56521739,0.734210526 9.46956522,0.639473684 9.32608696,0.639473684 Z"></path>
                                <path d="M12.1956522,1.58684211 C11.7891304,1.58684211 11.4782609,1.27894737 11.4782609,0.876315789 C11.4782609,0.473684211 11.7891304,0.165789474 12.1956522,0.165789474 C12.6021739,0.165789474 12.9130435,0.473684211 12.9130435,0.876315789 C12.9130435,1.27894737 12.6021739,1.58684211 12.1956522,1.58684211 Z M12.1956522,0.639473684 C12.0521739,0.639473684 11.9565217,0.734210526 11.9565217,0.876315789 C11.9565217,1.01842105 12.0521739,1.11315789 12.1956522,1.11315789 C12.3391304,1.11315789 12.4347826,1.01842105 12.4347826,0.876315789 C12.4347826,0.734210526 12.3391304,0.639473684 12.1956522,0.639473684 Z"></path>
                            </g>
                        </g>
                    </g>
                </g>
            </g>
        </g>
    </g>
</svg>